<svg width="27" height="77" viewBox="0 0 27 77" fill="none" xmlns="http://www.w3.org/2000/svg">
<path d="M21 7C21 10.866 17.6421 14 13.5 14C9.35786 14 5.99999 10.866 5.99999 7C5.99999 3.13401 9.35786 0 13.5 0C17.6421 0 21 3.13401 21 7Z" fill="#FF0000"/>
<path d="M21 25C21 28.866 17.6421 32 13.5 32C9.35786 32 5.99999 28.866 5.99999 25C5.99999 21.134 9.35786 18 13.5 18C17.6421 18 21 21.134 21 25Z" fill="#FF0000"/>
<path d="M21 43C21 46.866 17.6421 50 13.5 50C9.35786 50 5.99999 46.866 5.99999 43C5.99999 39.134 9.35786 36 13.5 36C17.6421 36 21 39.134 21 43Z" fill="#FF0000"/>
<path d="M13.5 77L0.0765991 56.75H26.9234L13.5 77Z" fill="#FF0000"/>
</svg>
