<svg width="28" height="30" viewBox="0 0 28 30" fill="none" xmlns="http://www.w3.org/2000/svg">
<path d="M14.185 15.7257C13.6225 15.7257 13.1474 15.3969 13.1474 15.0075H11.4446C11.4446 16.228 12.6737 17.2214 14.185 17.2214C15.6962 17.2214 16.9259 16.2282 16.9259 15.0075H15.2231C15.2231 15.3969 14.7477 15.7257 14.185 15.7257ZM14.8502 9.13135V10.6726H13.5197V9.13135H7.40558V13.6183H13.52V12.1685H14.8505V13.6183H20.9652V9.13135H14.8502ZM11.8172 12.1227H9.10837V10.627H11.8172V12.1227ZM19.2621 12.1227H16.553V10.627H19.2621V12.1227ZM13.0498 27.9931H15.3207V29.4888H13.0498V27.9931Z" fill="#FF7979"/>
<path d="M24.7485 7.96814H23.464C22.4495 3.63896 18.6755 0.413818 14.1852 0.413818C9.69496 0.413818 5.921 3.63896 4.90642 7.96814H3.62166C2.17343 7.96814 0.995667 9.00289 0.995667 10.2747V13.3059C0.995667 14.5777 2.17343 15.6125 3.62166 15.6125H6.21984C7.18532 17.0421 8.54784 18.1685 10.1766 18.8705C7.22278 19.909 3.30579 22.3098 3.30579 25.3719V28.9228H5.00859V25.3721C5.00859 23.3101 7.9337 21.3992 10.2901 20.4439C10.3849 21.8242 11.4105 22.9846 12.8238 23.4482H8.72011C7.54149 23.4482 6.58282 24.2905 6.58282 25.3258V29.6552H8.28561V25.3258C8.28561 25.1151 8.48058 24.9439 8.72011 24.9439H19.6506C19.8899 24.9439 20.0846 25.1154 20.0846 25.3258V29.6552H21.7874V25.3258C21.7874 24.2905 20.8287 23.4482 19.6506 23.4482H15.5458C16.9591 22.9848 17.985 21.8244 18.0801 20.4442C20.4368 21.3992 23.3616 23.3099 23.3616 25.3721V28.9231H25.0644V25.3721C25.0644 22.31 21.1474 19.9095 18.1933 18.8707C19.822 18.169 21.1848 17.0426 22.1503 15.6127H24.7482C26.1965 15.6127 27.3745 14.578 27.3745 13.3062V10.2749C27.3748 9.00289 26.1967 7.96814 24.7485 7.96814V7.96814ZM14.1852 1.90973C17.672 1.90973 20.6334 4.35413 21.6523 7.7236C20.3806 7.35991 19.6132 6.5024 19.3262 5.12589C19.2963 4.98287 19.2196 4.85061 19.1055 4.74525C18.9914 4.63989 18.8449 4.566 18.6837 4.53261C18.5225 4.49922 18.3538 4.50787 18.1981 4.55751C18.0424 4.60715 17.9066 4.69561 17.8074 4.81205C17.137 5.59752 16.0396 5.9328 14.1378 5.9328C12.2426 5.9328 11.1988 5.63093 10.535 4.89058C10.4345 4.77857 10.2996 4.69414 10.1462 4.64725C9.99283 4.60036 9.8274 4.59296 9.66941 4.62591C9.51141 4.65887 9.36744 4.73082 9.25446 4.83327C9.14147 4.93572 9.06419 5.06441 9.03172 5.20416C8.7238 6.53356 7.96066 7.36464 6.71904 7.72211C7.73816 4.35314 10.6988 1.90973 14.1852 1.90973V1.90973ZM4.66859 14.1168H3.62138C3.3766 14.1166 3.14191 14.0311 2.96882 13.8791C2.79574 13.727 2.6984 13.5209 2.69818 13.3059V10.2747C2.6984 10.0597 2.79574 9.85356 2.96882 9.70153C3.14191 9.5495 3.3766 9.464 3.62138 9.4638H4.66859V9.51465C4.64784 9.77509 4.63695 10.0361 4.63596 10.2971C4.63596 10.5621 4.64873 10.8229 4.66859 11.0809V14.1168ZM16.3892 20.236C16.3892 21.3032 15.4005 22.1717 14.1847 22.1717C12.9694 22.1717 11.9807 21.3034 11.9807 20.236V19.9008C12.2653 19.8394 12.5151 19.8055 12.7117 19.8055H15.657C15.8537 19.8055 16.104 19.8397 16.3889 19.901V20.236H16.3892ZM14.1852 18.1832C9.96145 18.1832 6.72018 15.16 6.37167 11.0382V9.5513C6.37763 9.47651 6.38501 9.40223 6.39296 9.32795C8.23623 9.04701 9.57378 8.13815 10.2875 6.68013C11.4468 7.32152 12.8505 7.42796 14.1378 7.42796C15.3783 7.42796 16.8492 7.31878 18.0562 6.62728C18.7572 8.11771 20.1039 9.04502 21.9775 9.3282C21.9854 9.40223 21.9928 9.47651 21.9988 9.55105V11.038C21.65 15.16 18.4087 18.1832 14.1852 18.1832V18.1832ZM25.672 13.3059C25.6716 13.5209 25.5742 13.727 25.4011 13.879C25.228 14.031 24.9933 14.1165 24.7485 14.1168H23.7016V11.0811C23.7224 10.8203 23.7333 10.5589 23.7342 10.2974C23.7342 10.0336 23.7212 9.77315 23.7016 9.51465V9.4638H24.7485C24.9933 9.464 25.228 9.54949 25.4012 9.70151C25.5743 9.85353 25.6717 10.0597 25.672 10.2747V13.3059V13.3059Z" fill="white"/>
</svg>
