<svg width="32" height="32" viewBox="0 0 32 32" fill="none" xmlns="http://www.w3.org/2000/svg">
<g opacity="0.4">
<path opacity="0.4" d="M16 31.75C7.315 31.75 0.25 24.685 0.25 16C0.25 7.315 7.315 0.25 16 0.25C24.685 0.25 31.75 7.315 31.75 16C31.75 24.685 24.685 31.75 16 31.75Z" fill="#E5E5E5"/>
<path opacity="0.4" d="M16 0.5C24.547 0.5 31.5 7.453 31.5 16C31.5 24.547 24.547 31.5 16 31.5C7.453 31.5 0.5 24.547 0.5 16C0.5 7.453 7.453 0.5 16 0.5ZM16 0C7.178 0 0 7.178 0 16C0 24.822 7.178 32 16 32C24.822 32 32 24.822 32 16C32 7.178 24.822 0 16 0Z" fill="#CCCCCC"/>
</g>
<path d="M16 31.75C7.315 31.75 0.25 24.685 0.25 16C0.25 7.315 7.315 0.25 16 0.25C24.685 0.25 31.75 7.315 31.75 16C31.75 24.685 24.685 31.75 16 31.75Z" fill="#E5E5E5"/>
<path d="M16 0.5C24.547 0.5 31.5 7.453 31.5 16C31.5 24.547 24.547 31.5 16 31.5C7.453 31.5 0.5 24.547 0.5 16C0.5 7.453 7.453 0.5 16 0.5ZM16 0C7.178 0 0 7.178 0 16C0 24.822 7.178 32 16 32C24.822 32 32 24.822 32 16C32 7.178 24.822 0 16 0Z" fill="#CCCCCC"/>
<path d="M16 30.625C7.936 30.625 1.375 24.064 1.375 16C1.375 7.936 7.936 1.375 16 1.375C24.064 1.375 30.625 7.936 30.625 16C30.625 24.064 24.064 30.625 16 30.625Z" fill="white"/>
<path d="M16 30.625C7.936 30.625 1.375 24.064 1.375 16C1.375 7.936 7.936 1.375 16 1.375C24.064 1.375 30.625 7.936 30.625 16C30.625 24.064 24.064 30.625 16 30.625Z" fill="white"/>
<g opacity="0.4">
<path opacity="0.4" d="M16 29.7541C8.416 29.7541 2.246 23.5841 2.246 16.0001C2.246 8.41609 8.416 2.24609 16 2.24609C23.584 2.24609 29.754 8.41609 29.754 16.0001C29.754 23.5841 23.584 29.7541 16 29.7541Z" fill="#8AD5DD"/>
</g>
<path d="M16 29.7541C8.416 29.7541 2.246 23.5841 2.246 16.0001C2.246 8.41609 8.416 2.24609 16 2.24609C23.584 2.24609 29.754 8.41609 29.754 16.0001C29.754 23.5841 23.584 29.7541 16 29.7541Z" fill="#8AD5DD"/>
<g opacity="0.4">
<path opacity="0.4" d="M16 29.7541C8.416 29.7541 2.246 23.5841 2.246 16.0001C2.246 8.41609 8.416 2.24609 16 2.24609C23.584 2.24609 29.754 8.41609 29.754 16.0001C29.754 23.5841 23.584 29.7541 16 29.7541Z" fill="#EB6C6C"/>
</g>
<path d="M16 29.7541C8.416 29.7541 2.246 23.5841 2.246 16.0001C2.246 8.41609 8.416 2.24609 16 2.24609C23.584 2.24609 29.754 8.41609 29.754 16.0001C29.754 23.5841 23.584 29.7541 16 29.7541Z" fill="#EB6C6C"/>
<g opacity="0.4">
<path opacity="0.4" d="M16 28.5771C9.065 28.5771 3.423 22.9351 3.423 16.0001C3.423 9.0651 9.065 3.4231 16 3.4231C22.935 3.4231 28.577 9.0651 28.577 16.0001C28.577 22.9351 22.935 28.5771 16 28.5771Z" fill="black"/>
</g>
<path d="M16 28.5771C9.065 28.5771 3.423 22.9351 3.423 16.0001C3.423 9.0651 9.065 3.4231 16 3.4231C22.935 3.4231 28.577 9.0651 28.577 16.0001C28.577 22.9351 22.935 28.5771 16 28.5771Z" fill="black"/>
<path d="M18.52 24.864H16.257H13.992C13.992 24.864 13.998 23.52 13.992 22.599C10.893 23.266 10.028 20.9 10.028 20.9C9.462 19.768 8.896 19.201 8.896 19.201C7.764 18.528 8.896 18.635 8.896 18.635C10.028 18.635 10.595 19.767 10.595 19.767C11.589 21.454 13.357 21.183 13.992 20.899C13.992 20.333 14.24 19.477 14.558 19.2C12.085 18.921 10.026 17.501 10.026 14.67C10.026 11.839 10.594 11.273 11.161 10.706C11.047 10.427 10.573 9.395 11.179 7.875C11.179 7.875 12.292 7.875 13.424 9.574C13.985 9.013 15.689 9.008 16.256 9.008C16.821 9.008 18.525 9.013 19.086 9.574C20.218 7.875 21.334 7.875 21.334 7.875C21.939 9.395 21.466 10.427 21.351 10.706C21.917 11.272 22.483 11.838 22.483 14.67C22.483 17.502 20.427 18.921 17.953 19.2C18.272 19.476 18.519 20.451 18.519 20.899L18.52 24.864Z" fill="white"/>
</svg>
