<svg width="32" height="32" viewBox="0 0 32 32" fill="none" xmlns="http://www.w3.org/2000/svg">
<g opacity="0.4">
<path opacity="0.4" d="M16 31.75C7.315 31.75 0.25 24.685 0.25 16C0.25 7.315 7.315 0.25 16 0.25C24.685 0.25 31.75 7.315 31.75 16C31.75 24.685 24.685 31.75 16 31.75Z" fill="#E5E5E5"/>
<path opacity="0.4" d="M16 0.5C24.547 0.5 31.5 7.453 31.5 16C31.5 24.547 24.547 31.5 16 31.5C7.453 31.5 0.5 24.547 0.5 16C0.5 7.453 7.453 0.5 16 0.5ZM16 0C7.178 0 0 7.178 0 16C0 24.822 7.178 32 16 32C24.822 32 32 24.822 32 16C32 7.178 24.822 0 16 0Z" fill="#CCCCCC"/>
</g>
<path d="M16 31.75C7.315 31.75 0.25 24.685 0.25 16C0.25 7.315 7.315 0.25 16 0.25C24.685 0.25 31.75 7.315 31.75 16C31.75 24.685 24.685 31.75 16 31.75Z" fill="#E5E5E5"/>
<path d="M16 0.5C24.547 0.5 31.5 7.453 31.5 16C31.5 24.547 24.547 31.5 16 31.5C7.453 31.5 0.5 24.547 0.5 16C0.5 7.453 7.453 0.5 16 0.5ZM16 0C7.178 0 0 7.178 0 16C0 24.822 7.178 32 16 32C24.822 32 32 24.822 32 16C32 7.178 24.822 0 16 0Z" fill="#CCCCCC"/>
<path d="M16 30.625C7.936 30.625 1.375 24.064 1.375 16C1.375 7.936 7.936 1.375 16 1.375C24.064 1.375 30.625 7.936 30.625 16C30.625 24.064 24.064 30.625 16 30.625Z" fill="white"/>
<path d="M16 30.625C7.936 30.625 1.375 24.064 1.375 16C1.375 7.936 7.936 1.375 16 1.375C24.064 1.375 30.625 7.936 30.625 16C30.625 24.064 24.064 30.625 16 30.625Z" fill="white"/>
<g opacity="0.4">
<path opacity="0.4" d="M16 29.7541C8.416 29.7541 2.246 23.5841 2.246 16.0001C2.246 8.41609 8.416 2.24609 16 2.24609C23.584 2.24609 29.754 8.41609 29.754 16.0001C29.754 23.5841 23.584 29.7541 16 29.7541Z" fill="#FF7979"/>
</g>
<path d="M16 29.7541C8.416 29.7541 2.246 23.5841 2.246 16.0001C2.246 8.41609 8.416 2.24609 16 2.24609C23.584 2.24609 29.754 8.41609 29.754 16.0001C29.754 23.5841 23.584 29.7541 16 29.7541Z" fill="#FF7979"/>
<g opacity="0.4">
<path opacity="0.4" d="M16 29.7541C8.416 29.7541 2.246 23.5841 2.246 16.0001C2.246 8.41609 8.416 2.24609 16 2.24609C23.584 2.24609 29.754 8.41609 29.754 16.0001C29.754 23.5841 23.584 29.7541 16 29.7541Z" fill="#FF7979"/>
</g>
<path d="M16 29.7541C8.416 29.7541 2.246 23.5841 2.246 16.0001C2.246 8.41609 8.416 2.24609 16 2.24609C23.584 2.24609 29.754 8.41609 29.754 16.0001C29.754 23.5841 23.584 29.7541 16 29.7541Z" fill="#FF7979"/>
<g opacity="0.4">
<path opacity="0.4" d="M16 28.5771C9.065 28.5771 3.423 22.9351 3.423 16.0001C3.423 9.0651 9.065 3.4231 16 3.4231C22.935 3.4231 28.577 9.0651 28.577 16.0001C28.577 22.9351 22.935 28.5771 16 28.5771Z" fill="black"/>
</g>
<path d="M16 28.5771C9.065 28.5771 3.423 22.9351 3.423 16.0001C3.423 9.0651 9.065 3.4231 16 3.4231C22.935 3.4231 28.577 9.0651 28.577 16.0001C28.577 22.9351 22.935 28.5771 16 28.5771Z" fill="black"/>
<path d="M23.247 21.927V16.567C23.247 13.695 21.714 12.359 19.67 12.359C18.021 12.359 17.282 13.266 16.87 13.903V12.579H13.763C13.804 13.456 13.763 21.927 13.763 21.927H16.87V16.706C16.87 16.427 16.89 16.148 16.973 15.949C17.197 15.391 17.708 14.813 18.566 14.813C19.691 14.813 20.14 15.67 20.14 16.926V21.927H23.247ZM10.49 11.303C11.573 11.303 12.248 10.585 12.248 9.687C12.228 8.77 11.573 8.073 10.51 8.073C9.447 8.073 8.753 8.77 8.753 9.687C8.753 10.584 9.428 11.303 10.47 11.303H10.49V11.303ZM12.043 21.927V12.579H8.937V21.927H12.043Z" fill="white"/>
</svg>
