<svg width="32" height="32" viewBox="0 0 32 32" fill="none" xmlns="http://www.w3.org/2000/svg">
<g opacity="0.4">
<path opacity="0.4" d="M16 31.75C7.315 31.75 0.25 24.685 0.25 16C0.25 7.315 7.315 0.25 16 0.25C24.685 0.25 31.75 7.315 31.75 16C31.75 24.685 24.685 31.75 16 31.75Z" fill="#E5E5E5"/>
<path opacity="0.4" d="M16 0.5C24.547 0.5 31.5 7.453 31.5 16C31.5 24.547 24.547 31.5 16 31.5C7.453 31.5 0.5 24.547 0.5 16C0.5 7.453 7.453 0.5 16 0.5ZM16 0C7.178 0 0 7.178 0 16C0 24.822 7.178 32 16 32C24.822 32 32 24.822 32 16C32 7.178 24.822 0 16 0Z" fill="#CCCCCC"/>
</g>
<path d="M16 31.75C7.315 31.75 0.25 24.685 0.25 16C0.25 7.315 7.315 0.25 16 0.25C24.685 0.25 31.75 7.315 31.75 16C31.75 24.685 24.685 31.75 16 31.75Z" fill="#E5E5E5"/>
<path d="M16 0.5C24.547 0.5 31.5 7.453 31.5 16C31.5 24.547 24.547 31.5 16 31.5C7.453 31.5 0.5 24.547 0.5 16C0.5 7.453 7.453 0.5 16 0.5ZM16 0C7.178 0 0 7.178 0 16C0 24.822 7.178 32 16 32C24.822 32 32 24.822 32 16C32 7.178 24.822 0 16 0Z" fill="#CCCCCC"/>
<path d="M16 30.625C7.936 30.625 1.375 24.064 1.375 16C1.375 7.936 7.936 1.375 16 1.375C24.064 1.375 30.625 7.936 30.625 16C30.625 24.064 24.064 30.625 16 30.625Z" fill="white"/>
<path d="M16 30.625C7.936 30.625 1.375 24.064 1.375 16C1.375 7.936 7.936 1.375 16 1.375C24.064 1.375 30.625 7.936 30.625 16C30.625 24.064 24.064 30.625 16 30.625Z" fill="white"/>
<g opacity="0.4">
<path opacity="0.4" d="M16 29.7541C8.416 29.7541 2.246 23.5841 2.246 16.0001C2.246 8.41609 8.416 2.24609 16 2.24609C23.584 2.24609 29.754 8.41609 29.754 16.0001C29.754 23.5841 23.584 29.7541 16 29.7541Z" fill="#DE0000"/>
</g>
<path d="M16 29.7541C8.416 29.7541 2.246 23.5841 2.246 16.0001C2.246 8.41609 8.416 2.24609 16 2.24609C23.584 2.24609 29.754 8.41609 29.754 16.0001C29.754 23.5841 23.584 29.7541 16 29.7541Z" fill="#DE0000"/>
<g opacity="0.4">
<path opacity="0.4" d="M16 29.7541C8.416 29.7541 2.246 23.5841 2.246 16.0001C2.246 8.41609 8.416 2.24609 16 2.24609C23.584 2.24609 29.754 8.41609 29.754 16.0001C29.754 23.5841 23.584 29.7541 16 29.7541Z" fill="#FF7979"/>
</g>
<path d="M16 29.7541C8.416 29.7541 2.246 23.5841 2.246 16.0001C2.246 8.41609 8.416 2.24609 16 2.24609C23.584 2.24609 29.754 8.41609 29.754 16.0001C29.754 23.5841 23.584 29.7541 16 29.7541Z" fill="#FF7979"/>
<g opacity="0.4">
<path opacity="0.4" d="M16 28.5771C9.065 28.5771 3.423 22.9351 3.423 16.0001C3.423 9.0651 9.065 3.4231 16 3.4231C22.935 3.4231 28.577 9.0651 28.577 16.0001C28.577 22.9351 22.935 28.5771 16 28.5771Z" fill="black"/>
</g>
<path d="M16 28.5771C9.065 28.5771 3.423 22.9351 3.423 16.0001C3.423 9.0651 9.065 3.4231 16 3.4231C22.935 3.4231 28.577 9.0651 28.577 16.0001C28.577 22.9351 22.935 28.5771 16 28.5771Z" fill="black"/>
<path d="M21.555 8.59302H10.445C9.399 8.59302 8.593 9.39902 8.593 10.445V21.555C8.593 22.6 9.399 23.407 10.445 23.407H21.555C22.6 23.407 23.407 22.601 23.407 21.555V10.445C23.407 9.39902 22.6 8.59302 21.555 8.59302ZM16.011 13.09C17.654 13.09 18.985 14.38 18.985 15.972C18.985 17.563 17.654 18.854 16.011 18.854C14.369 18.854 13.038 17.563 13.038 15.972C13.038 14.38 14.37 13.09 16.011 13.09ZM21.555 21.092C21.555 21.417 21.416 21.555 21.092 21.555H10.908C10.584 21.555 10.445 21.417 10.445 21.092V14.611L11.599 14.862C11.475 15.265 11.408 15.691 11.408 16.133C11.408 18.595 13.47 20.593 16.011 20.593C18.553 20.593 20.614 18.596 20.614 16.133C20.614 15.691 20.547 15.265 20.423 14.862L21.555 14.611V21.092ZM21.555 12.76C21.555 13.016 21.348 13.223 21.092 13.223H19.24C18.984 13.223 18.777 13.016 18.777 12.76V10.908C18.777 10.652 18.984 10.445 19.24 10.445H21.092C21.348 10.445 21.555 10.652 21.555 10.908V12.76Z" fill="white"/>
</svg>
