<svg width="89" height="48" viewBox="0 0 89 48" fill="none" xmlns="http://www.w3.org/2000/svg">
<path d="M41.8076 21.3084C41.8076 21.8848 42.8234 22.173 44.8549 22.173H45.2143C45.6102 21.9208 45.8603 21.7947 45.9644 21.7947C46.2145 21.7947 46.527 22.0229 46.9021 22.4792C47.2667 22.9476 47.449 23.4819 47.449 24.0824C47.449 24.2865 47.3552 24.3886 47.1677 24.3886C47.1052 24.3886 46.8343 24.3406 46.3551 24.2445C46.2093 24.2925 45.9384 24.3826 45.5425 24.5147C45.1362 24.6468 44.8601 24.7368 44.7143 24.7849C44.5684 24.8449 44.3288 24.941 43.9954 25.0731C43.662 25.2052 43.4172 25.3193 43.261 25.4153C43.1047 25.4994 42.8963 25.6255 42.6359 25.7936C42.365 25.9617 42.141 26.1418 41.9639 26.334C41.4118 26.9584 41.0315 27.4448 40.8231 27.793C40.4481 28.3935 40.2606 29.0179 40.2606 29.6664C40.2606 30.3148 40.3908 30.8012 40.6512 31.1254C40.9117 31.4617 41.344 31.6298 41.9483 31.6298C42.5525 31.6298 43.2766 31.4557 44.1204 31.1074C44.9539 30.7592 45.3706 30.2608 45.3706 29.6123C45.3706 29.3962 45.3289 29.18 45.2456 28.9639C45.1518 28.7597 45.0112 28.6577 44.8237 28.6577C44.6257 28.6577 44.0267 28.9939 43.0265 29.6664C42.0264 30.3509 41.4951 30.6931 41.4326 30.6931C41.3805 30.6931 41.3545 30.6211 41.3545 30.477C41.3545 30.3329 41.4013 30.1587 41.4951 29.9546C41.9222 29.138 42.4796 28.4835 43.1672 27.9912C43.8548 27.5108 44.5684 27.2707 45.3081 27.2707C46.0478 27.2707 46.6781 27.5228 47.199 28.0272C47.7199 28.5316 47.9803 29.102 47.9803 29.7384C47.9803 30.3869 47.8345 30.9333 47.5428 31.3776C46.6468 32.7226 44.9539 33.3951 42.464 33.3951C40.9221 33.3951 39.7761 32.7046 39.026 31.3236C38.6197 30.6031 38.4166 29.9066 38.4166 29.2341C38.4166 28.5616 38.5989 27.739 38.9635 26.7663C39.3281 25.8056 39.8126 25.0791 40.4168 24.5867C41.0211 24.1064 41.7972 23.6681 42.7453 23.2718C41.3284 22.7554 40.62 21.7227 40.62 20.1736C40.62 19.2489 40.9586 18.4623 41.6357 17.8139C42.1983 17.2374 42.9432 16.643 43.8704 16.0306C44.7976 15.4181 45.381 15.0219 45.6206 14.8417C45.8498 14.6616 46.0947 14.5715 46.3551 14.5715C46.6156 14.5715 46.9177 14.7997 47.2615 15.256C47.4282 15.22 47.548 15.202 47.6209 15.202C47.9647 15.202 48.2095 15.3701 48.3554 15.7063C48.47 16.0306 48.5273 16.2407 48.5273 16.3368C48.5273 16.9492 47.4125 17.7658 45.1831 18.7866C45.0893 18.8226 45.0268 18.8406 44.9956 18.8406C44.9122 18.8406 44.8705 18.7685 44.8705 18.6244C44.8705 18.4803 44.9435 18.1561 45.0893 17.6517L44.3705 18.066C43.5266 18.5704 43.0057 18.9367 42.8078 19.1648C42.464 19.6572 42.2087 20.1135 42.042 20.5338C41.8858 20.9541 41.8076 21.2123 41.8076 21.3084ZM57.8723 22.4432C57.8723 23.8122 57.4347 24.965 56.5596 25.9017C55.9866 28.3514 55.2938 30.3028 54.4812 31.7559C53.9915 32.5725 53.429 32.9808 52.7935 32.9808C52.4601 32.9808 52.0642 32.8307 51.6058 32.5304C50.3973 31.6778 49.6889 30.6871 49.4805 29.5583C49.2826 28.4295 49.1836 27.2526 49.1836 26.0278C49.1836 22.8335 49.8816 19.5551 51.2776 16.1927C51.4547 15.8084 51.6371 15.6163 51.8246 15.6163C51.8558 15.6163 52.1996 15.7664 52.856 16.0666C53.2206 15.0939 53.9655 14.6076 55.0906 14.6076C55.674 14.6076 56.1012 14.7336 56.3721 14.9858C57.0076 15.5502 57.3253 16.9973 57.3253 19.327C57.3253 20.0955 57.2732 20.9901 57.169 22.0109L57.6847 20.804C57.8097 21.3804 57.8723 21.9268 57.8723 22.4432ZM55.5438 17.5076C55.5438 17.2194 55.4917 16.9432 55.3876 16.679C55.273 16.4028 55.1219 16.2648 54.9344 16.2648C54.7468 16.2648 54.5854 16.3608 54.4499 16.553C54.3041 16.7331 54.1426 16.9913 53.9655 17.3275C53.1425 18.8766 52.731 20.75 52.731 22.9476C52.731 23.4999 52.8664 24.0764 53.1373 24.6768C53.3977 25.2772 53.7467 25.5774 54.1843 25.5774C54.2572 25.5774 54.3562 25.5594 54.4812 25.5234C55.1896 23.0496 55.5438 20.3777 55.5438 17.5076ZM54.0749 26.7303C53.6269 26.5982 53.2154 26.358 52.8403 26.0098C52.4549 25.6735 52.1736 25.2652 51.9965 24.7849C51.6839 23.8122 51.5277 22.9476 51.5277 22.191C51.5277 21.4345 51.5693 20.804 51.6527 20.2996C51.0276 21.8007 50.7151 23.4879 50.7151 25.3613C50.7151 27.2346 50.8974 28.8618 51.262 30.2428C51.387 30.7472 51.5902 30.9993 51.8715 30.9993C52.059 30.9993 52.2361 30.8492 52.4028 30.549C53.0279 29.5403 53.5852 28.2674 54.0749 26.7303ZM61.0133 21.6866L61.4509 21.6686C62.201 21.6686 62.7687 21.8007 63.1542 22.0649C63.5501 22.3411 63.9251 22.8575 64.2793 23.614C64.4252 23.8902 64.4981 24.1844 64.4981 24.4967C64.4981 24.8089 64.3939 25.0851 64.1856 25.3253C63.7064 25.9137 62.951 26.6942 61.9197 27.6669C60.8987 28.6396 60.284 29.2281 60.0757 29.4322L62.1541 29.3241C62.5916 29.3241 62.899 29.3662 63.0761 29.4502C63.2532 29.5223 63.3678 29.6364 63.4199 29.7925C63.4824 29.9606 63.5136 30.2248 63.5136 30.585C63.5136 30.9573 63.373 31.1675 63.0917 31.2155C62.6437 31.3236 61.753 31.6538 60.4195 32.2062C60.1486 32.3263 59.8673 32.3863 59.5756 32.3863C59.2839 32.3863 59.0339 32.2062 58.8255 31.8459C58.4088 30.9813 58.2004 30.3269 58.2004 29.8825C58.2004 29.4502 58.3202 29.0479 58.5598 28.6757C59.0182 28.0392 59.7371 27.1806 60.7164 26.0998C61.6853 25.007 62.2426 24.3706 62.3885 24.1904C60.5236 24.5387 59.4766 24.7128 59.2474 24.7128C59.0078 24.7128 58.8255 24.6828 58.7005 24.6228C58.5651 24.5627 58.4609 24.4486 58.3879 24.2805C58.19 23.8122 58.091 23.3619 58.091 22.9295C58.091 22.221 58.6849 21.5906 59.8725 21.0382C59.9663 20.9901 60.0653 20.9661 60.1694 20.9661C60.357 20.9661 60.4663 21.0982 60.4976 21.3624C60.5393 21.5786 60.7112 21.6866 61.0133 21.6866ZM64.8263 20.8581L65.4201 21.0022L66.4671 20.786C66.8005 20.786 67.1131 20.9301 67.4048 21.2183C67.436 21.2423 67.5298 21.3264 67.686 21.4705C67.8319 21.6026 67.9517 21.7107 68.0455 21.7947C68.2747 22.0469 68.3893 22.2631 68.3893 22.4432C68.3893 22.6113 68.259 23.1157 67.9986 23.9563C67.7381 24.7969 67.4621 25.6915 67.1704 26.6402C66.7849 27.793 66.5922 28.4295 66.5922 28.5496C66.5922 28.6697 66.6286 28.7297 66.7015 28.7297C66.8161 28.7297 67.2537 27.9311 68.0142 26.334C68.7747 24.7368 69.3529 23.4819 69.7488 22.5693C69.8947 22.2571 70.0978 22.1009 70.3583 22.1009C70.9729 22.1009 71.2803 22.3952 71.2803 22.9836C71.2803 23.3198 71.0875 24.2685 70.7021 25.8296C70.2228 27.8951 69.9832 29.0179 69.9832 29.198C69.9832 29.3662 70.0249 29.4502 70.1082 29.4502C70.1916 29.4502 70.3531 29.0119 70.5927 28.1353C70.8427 27.2466 71.0198 26.8023 71.124 26.8023C71.1865 26.8023 71.2594 26.8804 71.3428 27.0365C71.7074 27.9131 71.8897 28.7177 71.8897 29.4502C71.8897 30.1948 71.6657 31.0474 71.2178 32.0081C71.0094 32.4644 70.7229 32.6926 70.3583 32.6926C70.1291 32.6926 69.9624 32.6205 69.8582 32.4764C69.5665 32.0921 69.3894 31.8339 69.3269 31.7018C69.056 31.2936 68.832 30.573 68.6549 29.5403C68.5507 29.7564 68.4205 30.0627 68.2642 30.459C67.9205 31.3596 67.6131 32.0081 67.3423 32.4043C67.1651 32.6926 66.9412 32.8367 66.6703 32.8367C66.3994 32.8367 66.1025 32.6205 65.7795 32.1882C65.3003 31.4316 65.0607 30.579 65.0607 29.6304C65.0503 28.6937 65.1284 27.811 65.2951 26.9825C65.4618 26.1659 65.7222 25.1692 66.0765 23.9923L66.139 23.6861C66.139 23.554 66.0869 23.4879 65.9827 23.4879L65.4826 23.632C65.2326 23.632 65.0555 23.4639 64.9513 23.1277C64.7221 22.5273 64.6075 21.8728 64.6075 21.1643C64.6075 20.9601 64.6804 20.8581 64.8263 20.8581ZM79.5626 26.8924C79.5626 27.709 79.5261 28.4235 79.4532 29.0359C79.3803 29.6364 79.1198 30.4469 78.6719 31.4677C78.2239 32.4764 77.7811 32.9808 77.3436 32.9808C77.1456 32.9808 76.9633 32.8667 76.7966 32.6385C75.9319 31.4377 75.4996 30.3028 75.4996 29.2341C75.4996 28.9098 75.5933 28.1773 75.7809 27.0365C76.0413 25.3193 76.1715 24.3646 76.1715 24.1724C76.1715 23.9803 76.1507 23.8842 76.109 23.8842C76.0569 23.8842 75.9996 23.9503 75.9371 24.0824C75.5621 24.8629 75.2548 25.7456 75.0151 26.7303C74.7859 27.703 74.6349 28.5256 74.562 29.198C74.489 29.8705 74.4057 30.8132 74.3119 32.0261C74.3119 32.4464 74.2182 32.6565 74.0306 32.6565C73.9473 32.6565 73.8014 32.5665 73.5931 32.3863C72.8117 31.6058 72.421 30.543 72.421 29.198C72.421 28.6336 72.4679 27.8471 72.5617 26.8383C72.6554 25.8296 72.7075 25.1331 72.718 24.7488C72.8846 22.4072 73.0826 21.2363 73.3118 21.2363C73.4472 21.2363 73.541 21.3984 73.5931 21.7227C73.6556 22.0589 73.6868 22.4312 73.6868 22.8395C73.6868 23.2478 73.6973 23.62 73.7181 23.9563C73.7389 24.2925 73.791 24.4606 73.8744 24.4606C73.9681 24.4606 74.0931 24.1904 74.2494 23.6501C74.4161 23.1217 74.6557 22.5813 74.9683 22.0289C75.2808 21.4885 75.6194 21.2183 75.984 21.2183C76.3486 21.2183 76.6664 21.3084 76.9373 21.4885C77.5728 21.8608 77.8905 22.6353 77.8905 23.8122C77.8905 24.2085 77.8436 24.7008 77.7499 25.2892C77.6665 25.8777 77.5936 26.5201 77.5311 27.2166C77.4582 27.9251 77.4217 28.3214 77.4217 28.4055C77.4217 28.5015 77.453 28.5496 77.5155 28.5496C77.6301 28.5496 77.927 28.2133 78.4062 27.5409C78.875 26.8684 79.198 26.5321 79.3751 26.5321C79.5001 26.5321 79.5626 26.6522 79.5626 26.8924ZM84.7508 29.162C83.5527 31.6238 82.6411 32.8547 82.0161 32.8547C81.5681 32.8547 81.1618 32.5364 80.7971 31.9C80.693 31.7319 80.5836 31.4677 80.469 31.1074C80.3544 30.7472 80.2137 30.4169 80.0471 30.1167C79.8699 29.8165 79.7814 29.4082 79.7814 28.8918C79.7814 28.3755 79.8699 27.9191 80.0471 27.5228C81.2451 24.7969 82.5057 22.9295 83.8288 21.9208C84.0059 21.7647 84.2143 21.6866 84.4539 21.6866C84.6831 21.6866 84.9748 21.8368 85.329 22.137C85.5269 22.3771 85.6467 22.5813 85.6884 22.7494C85.7613 23.1217 85.7978 23.3498 85.7978 23.4339C86.3083 23.638 86.5635 24.0043 86.5635 24.5327C86.5635 24.905 86.4802 25.7456 86.3135 27.0545C86.1364 28.3514 86.0322 29.3181 86.001 29.9546C86.001 30.3148 86.1051 30.495 86.3135 30.495C86.5427 30.495 86.9594 30.0206 87.5637 29.072C88.1679 28.1353 88.5169 27.6669 88.6107 27.6669C88.7565 27.6669 88.8295 27.9431 88.8295 28.4955L88.7826 29.7384C88.7826 30.2068 88.6003 30.8492 88.2356 31.6658C87.871 32.4824 87.4022 32.8907 86.8292 32.8907C86.4854 32.8907 86.2093 32.7526 86.001 32.4764C85.928 32.3923 85.8186 32.2242 85.6728 31.972C85.2248 31.2155 84.9175 30.2788 84.7508 29.162ZM84.9539 23.3258C83.11 25.2592 81.9431 27.4688 81.4535 29.9546C82.9224 28.5015 84.0892 26.292 84.9539 23.3258Z" fill="white"/>
<path d="M25.185 19.7257C24.6225 19.7257 24.1474 19.3969 24.1474 19.0075H22.4446C22.4446 20.228 23.6737 21.2214 25.185 21.2214C26.6962 21.2214 27.9259 20.2282 27.9259 19.0075H26.2231C26.2231 19.3969 25.7477 19.7257 25.185 19.7257ZM25.8502 13.1313V14.6726H24.5197V13.1313H18.4056V17.6183H24.52V16.1685H25.8505V17.6183H31.9652V13.1313H25.8502ZM22.8172 16.1227H20.1084V14.627H22.8172V16.1227ZM30.2621 16.1227H27.553V14.627H30.2621V16.1227ZM24.0498 31.9931H26.3207V33.4888H24.0498V31.9931Z" fill="#FF7979"/>
<path d="M35.7485 11.9681H34.464C33.4495 7.63896 29.6755 4.41382 25.1852 4.41382C20.695 4.41382 16.921 7.63896 15.9064 11.9681H14.6217C13.1734 11.9681 11.9957 13.0029 11.9957 14.2747V17.3059C11.9957 18.5777 13.1734 19.6125 14.6217 19.6125H17.2198C18.1853 21.0421 19.5478 22.1685 21.1766 22.8705C18.2228 23.909 14.3058 26.3098 14.3058 29.3719V32.9228H16.0086V29.3721C16.0086 27.3101 18.9337 25.3992 21.2901 24.4439C21.3849 25.8242 22.4105 26.9846 23.8238 27.4482H19.7201C18.5415 27.4482 17.5828 28.2905 17.5828 29.3258V33.6552H19.2856V29.3258C19.2856 29.1151 19.4806 28.9439 19.7201 28.9439H30.6506C30.8899 28.9439 31.0846 29.1154 31.0846 29.3258V33.6552H32.7874V29.3258C32.7874 28.2905 31.8287 27.4482 30.6506 27.4482H26.5458C27.9591 26.9848 28.985 25.8244 29.0801 24.4442C31.4368 25.3992 34.3616 27.3099 34.3616 29.3721V32.9231H36.0644V29.3721C36.0644 26.31 32.1474 23.9095 29.1933 22.8707C30.822 22.169 32.1848 21.0426 33.1503 19.6127H35.7482C37.1965 19.6127 38.3745 18.578 38.3745 17.3062V14.2749C38.3748 13.0029 37.1967 11.9681 35.7485 11.9681V11.9681ZM25.1852 5.90973C28.672 5.90973 31.6334 8.35413 32.6523 11.7236C31.3806 11.3599 30.6132 10.5024 30.3262 9.12589C30.2963 8.98287 30.2196 8.85061 30.1055 8.74525C29.9914 8.63989 29.8449 8.566 29.6837 8.53261C29.5225 8.49922 29.3538 8.50787 29.1981 8.55751C29.0424 8.60715 28.9066 8.69561 28.8074 8.81205C28.137 9.59752 27.0396 9.9328 25.1378 9.9328C23.2426 9.9328 22.1988 9.63093 21.535 8.89058C21.4345 8.77857 21.2996 8.69414 21.1462 8.64725C20.9928 8.60036 20.8274 8.59296 20.6694 8.62591C20.5114 8.65887 20.3674 8.73082 20.2545 8.83327C20.1415 8.93572 20.0642 9.06441 20.0317 9.20416C19.7238 10.5336 18.9607 11.3646 17.719 11.7221C18.7382 8.35314 21.6988 5.90973 25.1852 5.90973V5.90973ZM15.6686 18.1168H14.6214C14.3766 18.1166 14.1419 18.0311 13.9688 17.8791C13.7957 17.727 13.6984 17.5209 13.6982 17.3059V14.2747C13.6984 14.0597 13.7957 13.8536 13.9688 13.7015C14.1419 13.5495 14.3766 13.464 14.6214 13.4638H15.6686V13.5147C15.6478 13.7751 15.637 14.0361 15.636 14.2971C15.636 14.5621 15.6487 14.8229 15.6686 15.0809V18.1168ZM27.3892 24.236C27.3892 25.3032 26.4005 26.1717 25.1847 26.1717C23.9694 26.1717 22.9807 25.3034 22.9807 24.236V23.9008C23.2653 23.8394 23.5151 23.8055 23.7117 23.8055H26.657C26.8537 23.8055 27.104 23.8397 27.3889 23.901V24.236H27.3892ZM25.1852 22.1832C20.9614 22.1832 17.7202 19.16 17.3717 15.0382V13.5513C17.3776 13.4765 17.385 13.4022 17.393 13.3279C19.2362 13.047 20.5738 12.1381 21.2875 10.6801C22.4468 11.3215 23.8505 11.428 25.1378 11.428C26.3783 11.428 27.8492 11.3188 29.0562 10.6273C29.7572 12.1177 31.1039 13.045 32.9775 13.3282C32.9854 13.4022 32.9928 13.4765 32.9988 13.551V15.038C32.65 19.16 29.4087 22.1832 25.1852 22.1832V22.1832ZM36.672 17.3059C36.6716 17.5209 36.5742 17.727 36.4011 17.879C36.228 18.031 35.9933 18.1165 35.7485 18.1168H34.7016V15.0811C34.7224 14.8203 34.7333 14.5589 34.7342 14.2974C34.7342 14.0336 34.7212 13.7732 34.7016 13.5147V13.4638H35.7485C35.9933 13.464 36.228 13.5495 36.4012 13.7015C36.5743 13.8535 36.6717 14.0597 36.672 14.2747V17.3059V17.3059Z" fill="white"/>
<rect x="50.3043" y="37.5173" width="28.2478" height="0.551727" fill="white"/>
</svg>
